<?xml version="1.0" standalone="no"?>
<!DOCTYPE svg PUBLIC "-//W3C//DTD SVG 20010904//EN"
 "http://www.w3.org/TR/2001/REC-SVG-20010904/DTD/svg10.dtd">
<svg version="1.0" xmlns="http://www.w3.org/2000/svg"
 width="1300.000000pt" height="1300.000000pt" viewBox="0 0 1300.000000 1300.000000"
 preserveAspectRatio="xMidYMid meet">
<metadata>
Created by potrace 1.16, written by Peter Selinger 2001-2019
</metadata>
<g transform="translate(0.000000,1300.000000) scale(0.100000,-0.100000)"
fill="#000000" stroke="none">
<path d="M6390 11553 c-270 -8 -631 -47 -859 -93 -726 -147 -1346 -414 -1971
-850 -297 -207 -712 -594 -956 -891 -777 -948 -1181 -2104 -1158 -3314 14
-751 185 -1456 515 -2126 131 -265 270 -496 461 -765 184 -259 541 -641 808
-865 687 -576 1431 -933 2320 -1113 322 -65 810 -101 1145 -85 254 13 586 51
772 89 142 28 410 94 418 102 2 2 -30 120 -71 263 -41 143 -90 316 -110 385
-19 68 -39 130 -43 137 -5 9 -34 -10 -96 -65 -240 -208 -497 -346 -760 -407
-32 -8 -60 -13 -62 -12 -3 3 -4 326 -3 1226 l0 604 270 -7 c149 -4 270 -5 270
-1 0 4 -13 53 -29 109 -16 55 -46 157 -65 226 -20 68 -40 127 -44 131 -4 4
-96 9 -204 10 l-198 3 0 968 0 968 1123 0 1123 0 -3 -72 c-5 -116 -33 -454
-47 -566 -7 -65 -9 -105 -3 -109 6 -3 51 -27 101 -54 50 -26 145 -77 211 -112
66 -36 123 -62 126 -58 17 16 68 525 85 844 l7 127 804 0 804 0 -6 -47 c-24
-219 -39 -332 -54 -415 -17 -97 -17 -97 3 -120 l21 -22 -21 17 c-20 17 -21 16
-47 -106 -55 -250 -184 -634 -296 -879 -17 -37 -31 -72 -31 -76 0 -8 378 -213
406 -220 21 -6 154 306 246 578 197 584 284 1197 258 1820 -41 975 -344 1872
-905 2680 -307 443 -763 905 -1195 1213 -603 429 -1252 710 -1977 856 -305 62
-781 103 -1083 94z m-130 -858 c0 -201 0 -475 0 -610 0 -135 0 -383 0 -551 l0
-307 -257 7 c-397 10 -1009 46 -1317 76 -54 6 -104 10 -112 10 -8 0 -14 5 -14
12 0 22 199 416 270 534 240 398 511 708 795 909 49 36 96 69 103 75 6 6 12 8
12 5 0 -4 12 2 28 13 42 30 166 90 245 119 63 23 219 70 240 72 4 1 7 -163 7
-364z m575 343 c495 -123 968 -529 1337 -1148 77 -129 184 -332 239 -455 55
-123 58 -111 -24 -119 -147 -14 -578 -45 -762 -55 -334 -19 -356 -20 -622 -27
l-263 -7 -2 544 c-2 299 -2 712 0 917 l2 372 28 -6 c15 -3 45 -10 67 -16z
m-1967 -299 c-208 -237 -374 -476 -538 -774 -75 -137 -209 -414 -235 -486 -7
-20 -20 -50 -29 -66 l-15 -30 -228 33 c-240 35 -696 119 -721 133 -11 6 25 48
149 172 449 450 941 780 1524 1020 77 32 142 58 143 58 2 1 -20 -26 -50 -60z
m3344 7 c365 -141 761 -372 1129 -658 204 -158 583 -524 558 -538 -36 -20
-545 -111 -856 -153 l-102 -14 -24 66 c-38 102 -157 351 -245 511 -160 294
-323 529 -543 783 -23 26 -39 47 -36 47 3 0 56 -20 119 -44z m-5279 -1651
c182 -41 580 -114 787 -145 183 -27 172 -23 160 -56 -13 -32 -89 -309 -124
-449 -66 -264 -145 -724 -176 -1020 -15 -150 -39 -514 -42 -647 l-3 -118 -808
0 -807 0 5 83 c64 883 312 1619 783 2320 25 37 51 67 57 67 6 0 82 -16 168
-35z m7359 -32 c305 -451 525 -946 657 -1478 16 -66 32 -133 35 -150 21 -118
28 -145 39 -138 9 5 9 3 1 -8 -9 -10 -8 -35 2 -99 15 -92 39 -314 49 -447 l5
-82 -352 -3 c-194 -2 -558 -1 -808 2 l-455 5 -3 110 c-11 412 -60 876 -138
1290 -49 260 -161 716 -203 828 -13 33 -16 31 94 47 182 26 662 113 820 149
94 21 179 39 191 40 15 1 33 -18 66 -66z m-5572 -232 c437 -40 914 -65 1375
-73 l160 -3 5 -996 c3 -548 3 -1020 2 -1048 l-4 -51 -1124 0 -1124 0 0 63 c0
93 18 372 35 542 51 508 135 944 267 1389 l62 209 66 -6 c36 -3 162 -15 280
-26z m3957 -109 c171 -553 282 -1232 309 -1894 l7 -168 -1126 0 -1126 0 -3 33
c-2 17 -2 489 0 1048 l2 1015 193 2 c105 2 226 4 267 7 41 2 154 7 250 10 275
9 1037 65 1075 80 6 2 33 4 60 4 l50 1 42 -138z m-5133 -2669 c31 -560 111
-1106 231 -1568 67 -261 83 -316 99 -363 18 -51 27 -46 -119 -67 -174 -25
-603 -102 -779 -141 -89 -19 -175 -37 -191 -40 -33 -6 -43 6 -167 201 -255
402 -476 932 -582 1397 -37 160 -106 615 -106 696 0 9 167 12 804 12 l803 0 7
-127z m2716 -837 c0 -870 -2 -964 -16 -970 -9 -3 -84 -6 -167 -6 -360 0 -942
-31 -1400 -75 -143 -14 -269 -25 -280 -25 -20 0 -28 19 -75 170 -151 483 -276
1195 -298 1695 -3 66 -7 132 -9 148 l-4 27 1124 0 1125 0 0 -964z m0 -1813 c1
-930 0 -1457 -3 -1459 -5 -6 -153 36 -235 66 -516 189 -1001 705 -1367 1452
-52 108 -95 201 -95 207 0 6 6 11 14 11 8 0 58 4 112 10 353 35 1074 75 1422
78 l152 2 0 -367z m-2170 129 c55 -147 259 -545 370 -722 117 -187 269 -391
416 -557 l46 -52 -134 54 c-461 185 -885 443 -1280 781 -155 132 -423 406
-406 415 18 10 396 83 558 108 388 60 384 59 397 43 7 -9 22 -40 33 -70z"/>
<path d="M7217 5783 c-19 -18 -9 -56 190 -738 31 -104 61 -212 68 -240 7 -27
65 -232 130 -455 64 -223 124 -430 132 -460 8 -30 35 -124 59 -208 25 -84 62
-215 83 -290 21 -75 62 -218 90 -317 29 -99 74 -256 101 -350 258 -901 279
-976 296 -1022 12 -33 21 -43 38 -43 27 0 11 -26 370 640 134 250 254 465 265
478 25 29 66 28 94 -1 22 -23 46 -52 272 -332 66 -82 156 -193 200 -246 44
-54 109 -135 145 -180 36 -44 92 -114 125 -153 33 -40 115 -140 181 -222 137
-168 158 -189 196 -198 38 -9 69 6 150 71 39 32 99 81 133 108 283 228 295
239 295 289 0 42 -35 92 -205 296 -39 47 -136 165 -216 264 -347 430 -424 525
-476 586 -197 234 -222 281 -168 316 14 9 108 40 208 69 100 29 223 65 272 80
50 15 119 35 155 45 36 9 157 45 270 78 113 33 231 68 262 76 31 9 60 21 63
27 18 27 -7 55 -82 94 -83 43 -462 245 -828 440 -282 150 -517 276 -625 333
-47 24 -177 94 -290 154 -257 137 -226 120 -415 221 -88 46 -221 117 -295 157
-74 40 -171 92 -215 115 -130 69 -404 214 -495 263 -47 24 -176 94 -287 153
-189 102 -230 119 -246 102z"/>
</g>
</svg>
